<mxfile host="65bd71144e">
    <diagram id="K9KL7mLd6qrgiezUtdxG" name="Page-1">
        <mxGraphModel dx="726" dy="1615" grid="0" gridSize="10" guides="1" tooltips="1" connect="1" arrows="1" fold="1" page="1" pageScale="1" pageWidth="850" pageHeight="1100" background="#ffffff" math="0" shadow="0">
            <root>
                <mxCell id="0"/>
                <mxCell id="1" parent="0"/>
                <mxCell id="2" value="" style="whiteSpace=wrap;html=1;gradientColor=none;fillColor=#FFFFFF;rounded=1;shadow=0;perimeterSpacing=1;strokeColor=#000000;" parent="1" vertex="1">
                    <mxGeometry x="126" y="69" width="259" height="251" as="geometry"/>
                </mxCell>
                <mxCell id="3" value="Sign in" style="text;html=1;align=center;verticalAlign=middle;resizable=0;points=[];autosize=1;strokeColor=#006EAF;fillColor=#1ba1e2;fontColor=#ffffff;" parent="1" vertex="1">
                    <mxGeometry x="240" y="228" width="55" height="26" as="geometry"/>
                </mxCell>
                <mxCell id="4" value="Register New Account" style="text;html=1;align=center;verticalAlign=middle;resizable=0;points=[];autosize=1;strokeColor=#006EAF;fillColor=#1ba1e2;fontColor=#ffffff;" parent="1" vertex="1">
                    <mxGeometry x="199.5" y="283.5" width="136" height="26" as="geometry"/>
                </mxCell>
                <mxCell id="5" value="" style="whiteSpace=wrap;html=1;rounded=1;shadow=0;sketch=0;strokeColor=#000000;fontColor=#000000;fillColor=#FFFFFF;gradientColor=none;" parent="1" vertex="1">
                    <mxGeometry x="227" y="163" width="94" height="19" as="geometry"/>
                </mxCell>
                <mxCell id="6" value="Username:" style="text;html=1;align=center;verticalAlign=middle;resizable=0;points=[];autosize=1;strokeColor=none;fillColor=none;fontColor=#000000;" parent="1" vertex="1">
                    <mxGeometry x="150" y="159.5" width="77" height="26" as="geometry"/>
                </mxCell>
                <mxCell id="7" value="Password:" style="text;html=1;align=center;verticalAlign=middle;resizable=0;points=[];autosize=1;strokeColor=none;fillColor=none;fontColor=#000000;" parent="1" vertex="1">
                    <mxGeometry x="156" y="188.5" width="74" height="26" as="geometry"/>
                </mxCell>
                <mxCell id="8" value="" style="whiteSpace=wrap;html=1;rounded=1;shadow=0;sketch=0;strokeColor=#000000;fontColor=#000000;fillColor=#FFFFFF;gradientColor=none;" parent="1" vertex="1">
                    <mxGeometry x="227" y="192" width="94" height="19" as="geometry"/>
                </mxCell>
                <mxCell id="9" value="&lt;font style=&quot;font-size: 14px;&quot;&gt;&lt;b&gt;Welcome to Trophy Tanks!&lt;/b&gt;&lt;/font&gt;" style="text;html=1;align=center;verticalAlign=middle;resizable=0;points=[];autosize=1;strokeColor=none;fillColor=none;fontColor=#000000;" parent="1" vertex="1">
                    <mxGeometry x="158" y="90.5" width="195" height="29" as="geometry"/>
                </mxCell>
                <mxCell id="10" value="" style="whiteSpace=wrap;html=1;rounded=0;shadow=0;sketch=0;strokeColor=#000000;fontColor=#000000;fillColor=#FFFFFF;gradientColor=none;" parent="1" vertex="1">
                    <mxGeometry x="523" y="169.5" width="451" height="377.5" as="geometry"/>
                </mxCell>
                <mxCell id="11" value="My Tanks" style="text;html=1;align=center;verticalAlign=middle;resizable=0;points=[];autosize=1;strokeColor=#006EAF;fillColor=#1ba1e2;fontColor=#ffffff;" parent="1" vertex="1">
                    <mxGeometry x="566" y="189" width="68" height="26" as="geometry"/>
                </mxCell>
                <mxCell id="33" value="" style="whiteSpace=wrap;html=1;rounded=0;shadow=0;sketch=0;strokeColor=#000000;fontColor=#000000;fillColor=#FFFFFF;gradientColor=none;" parent="1" vertex="1">
                    <mxGeometry x="52" y="468" width="451" height="518.5" as="geometry"/>
                </mxCell>
                <mxCell id="34" value="My Tanks" style="text;html=1;align=center;verticalAlign=middle;resizable=0;points=[];autosize=1;strokeColor=#006EAF;fillColor=#1ba1e2;fontColor=#ffffff;" parent="1" vertex="1">
                    <mxGeometry x="95" y="487.5" width="68" height="26" as="geometry"/>
                </mxCell>
                <mxCell id="37" value="" style="whiteSpace=wrap;html=1;rounded=0;shadow=0;sketch=0;strokeColor=#000000;fontColor=#000000;fillColor=#FFFFFF;gradientColor=none;" parent="1" vertex="1">
                    <mxGeometry x="156" y="777" width="244" height="150" as="geometry"/>
                </mxCell>
                <mxCell id="38" value="" style="edgeStyle=none;orthogonalLoop=1;jettySize=auto;html=1;fontColor=#000000;exitX=0;exitY=0;exitDx=0;exitDy=0;entryX=1;entryY=1;entryDx=0;entryDy=0;" parent="1" source="37" target="37" edge="1">
                    <mxGeometry width="80" relative="1" as="geometry">
                        <mxPoint x="58" y="837" as="sourcePoint"/>
                        <mxPoint x="138" y="837" as="targetPoint"/>
                        <Array as="points"/>
                    </mxGeometry>
                </mxCell>
                <mxCell id="39" value="" style="edgeStyle=none;orthogonalLoop=1;jettySize=auto;html=1;fontColor=#000000;entryX=1;entryY=0;entryDx=0;entryDy=0;exitX=0;exitY=1;exitDx=0;exitDy=0;" parent="1" source="37" target="37" edge="1">
                    <mxGeometry width="80" relative="1" as="geometry">
                        <mxPoint x="58" y="837" as="sourcePoint"/>
                        <mxPoint x="138" y="837" as="targetPoint"/>
                        <Array as="points"/>
                    </mxGeometry>
                </mxCell>
                <mxCell id="40" value="(your aquarium photo)" style="text;html=1;align=center;verticalAlign=middle;resizable=0;points=[];autosize=1;strokeColor=none;fillColor=none;fontColor=#000000;" parent="1" vertex="1">
                    <mxGeometry x="210.5" y="897" width="136" height="26" as="geometry"/>
                </mxCell>
                <mxCell id="41" value="Edit Tank Details" style="text;html=1;align=center;verticalAlign=middle;resizable=0;points=[];autosize=1;strokeColor=#006EAF;fillColor=#1ba1e2;fontColor=#ffffff;" parent="1" vertex="1">
                    <mxGeometry x="156" y="947.5" width="107" height="26" as="geometry"/>
                </mxCell>
                <mxCell id="42" value="Flora:" style="text;html=1;align=center;verticalAlign=middle;resizable=0;points=[];autosize=1;strokeColor=none;fillColor=none;fontColor=#000000;" parent="1" vertex="1">
                    <mxGeometry x="142" y="600" width="49" height="26" as="geometry"/>
                </mxCell>
                <mxCell id="43" value="Fauna:" style="text;html=1;align=center;verticalAlign=middle;resizable=0;points=[];autosize=1;strokeColor=none;fillColor=none;fontColor=#000000;" parent="1" vertex="1">
                    <mxGeometry x="139" y="629.5" width="55" height="26" as="geometry"/>
                </mxCell>
                <mxCell id="44" value="" style="whiteSpace=wrap;html=1;rounded=0;shadow=0;sketch=0;strokeColor=#000000;fontColor=#000000;fillColor=#FFFFFF;gradientColor=none;" parent="1" vertex="1">
                    <mxGeometry x="194" y="600.5" width="188" height="23" as="geometry"/>
                </mxCell>
                <mxCell id="45" value="" style="whiteSpace=wrap;html=1;rounded=0;shadow=0;sketch=0;strokeColor=#000000;fontColor=#000000;fillColor=#FFFFFF;gradientColor=none;" parent="1" vertex="1">
                    <mxGeometry x="194" y="629.5" width="188" height="23" as="geometry"/>
                </mxCell>
                <mxCell id="46" value="Tags:" style="text;html=1;align=center;verticalAlign=middle;resizable=0;points=[];autosize=1;strokeColor=none;fillColor=none;fontColor=#000000;" parent="1" vertex="1">
                    <mxGeometry x="134" y="662" width="47" height="26" as="geometry"/>
                </mxCell>
                <mxCell id="48" value="Date Started:" style="text;html=1;align=center;verticalAlign=middle;resizable=0;points=[];autosize=1;strokeColor=none;fillColor=none;fontColor=#000000;" parent="1" vertex="1">
                    <mxGeometry x="109" y="692" width="89" height="26" as="geometry"/>
                </mxCell>
                <mxCell id="49" value="" style="whiteSpace=wrap;html=1;rounded=0;shadow=0;sketch=0;strokeColor=#000000;fontColor=#000000;fillColor=#FFFFFF;gradientColor=none;" parent="1" vertex="1">
                    <mxGeometry x="194" y="692" width="188" height="23" as="geometry"/>
                </mxCell>
                <mxCell id="50" value="Noteworthy&lt;br&gt;Comments:" style="text;html=1;align=center;verticalAlign=middle;resizable=0;points=[];autosize=1;strokeColor=none;fillColor=none;fontColor=#000000;" parent="1" vertex="1">
                    <mxGeometry x="118" y="718" width="79" height="41" as="geometry"/>
                </mxCell>
                <mxCell id="51" value="" style="whiteSpace=wrap;html=1;rounded=0;shadow=0;sketch=0;strokeColor=#000000;fontColor=#000000;fillColor=#FFFFFF;gradientColor=none;" parent="1" vertex="1">
                    <mxGeometry x="194" y="722" width="188" height="34" as="geometry"/>
                </mxCell>
                <mxCell id="53" value="" style="whiteSpace=wrap;html=1;rounded=1;shadow=0;sketch=0;strokeColor=#000000;fontColor=#000000;fillColor=#FFFFFF;gradientColor=none;" parent="1" vertex="1">
                    <mxGeometry x="586" y="314" width="145" height="128" as="geometry"/>
                </mxCell>
                <mxCell id="54" value="" style="whiteSpace=wrap;html=1;rounded=0;shadow=0;sketch=0;strokeColor=#000000;fontColor=#000000;fillColor=#FFFFFF;gradientColor=none;" parent="1" vertex="1">
                    <mxGeometry x="613" y="357.5" width="91" height="63" as="geometry"/>
                </mxCell>
                <mxCell id="55" value="Tank Name" style="text;html=1;align=center;verticalAlign=middle;resizable=0;points=[];autosize=1;strokeColor=none;fillColor=none;fontColor=#000000;" parent="1" vertex="1">
                    <mxGeometry x="619" y="322" width="79" height="26" as="geometry"/>
                </mxCell>
                <mxCell id="56" value="" style="edgeStyle=none;orthogonalLoop=1;jettySize=auto;html=1;fontColor=#000000;exitX=0;exitY=1;exitDx=0;exitDy=0;entryX=1;entryY=0;entryDx=0;entryDy=0;" parent="1" source="54" target="54" edge="1">
                    <mxGeometry width="80" relative="1" as="geometry">
                        <mxPoint x="574" y="339" as="sourcePoint"/>
                        <mxPoint x="654" y="339" as="targetPoint"/>
                        <Array as="points"/>
                    </mxGeometry>
                </mxCell>
                <mxCell id="57" value="" style="edgeStyle=none;orthogonalLoop=1;jettySize=auto;html=1;fontColor=#000000;exitX=1;exitY=1;exitDx=0;exitDy=0;entryX=0;entryY=0;entryDx=0;entryDy=0;" parent="1" source="54" target="54" edge="1">
                    <mxGeometry width="80" relative="1" as="geometry">
                        <mxPoint x="574" y="339" as="sourcePoint"/>
                        <mxPoint x="654" y="339" as="targetPoint"/>
                        <Array as="points"/>
                    </mxGeometry>
                </mxCell>
                <mxCell id="58" value="(tank photo)" style="text;strokeColor=none;align=center;fillColor=none;html=1;verticalAlign=middle;whiteSpace=wrap;rounded=0;shadow=0;sketch=0;fontColor=#000000;" parent="1" vertex="1">
                    <mxGeometry x="621" y="390.5" width="75" height="30" as="geometry"/>
                </mxCell>
                <mxCell id="59" value="" style="whiteSpace=wrap;html=1;rounded=1;shadow=0;sketch=0;strokeColor=#000000;fontColor=#000000;fillColor=#FFFFFF;gradientColor=none;" parent="1" vertex="1">
                    <mxGeometry x="773" y="314" width="145" height="128" as="geometry"/>
                </mxCell>
                <mxCell id="60" value="" style="whiteSpace=wrap;html=1;rounded=0;shadow=0;sketch=0;strokeColor=#000000;fontColor=#000000;fillColor=#FFFFFF;gradientColor=none;" parent="1" vertex="1">
                    <mxGeometry x="800" y="357.5" width="91" height="63" as="geometry"/>
                </mxCell>
                <mxCell id="61" value="Tank Name" style="text;html=1;align=center;verticalAlign=middle;resizable=0;points=[];autosize=1;strokeColor=none;fillColor=none;fontColor=#000000;" parent="1" vertex="1">
                    <mxGeometry x="806" y="322" width="79" height="26" as="geometry"/>
                </mxCell>
                <mxCell id="62" value="" style="edgeStyle=none;orthogonalLoop=1;jettySize=auto;html=1;fontColor=#000000;exitX=0;exitY=1;exitDx=0;exitDy=0;entryX=1;entryY=0;entryDx=0;entryDy=0;" parent="1" source="60" target="60" edge="1">
                    <mxGeometry width="80" relative="1" as="geometry">
                        <mxPoint x="761" y="339" as="sourcePoint"/>
                        <mxPoint x="841" y="339" as="targetPoint"/>
                        <Array as="points"/>
                    </mxGeometry>
                </mxCell>
                <mxCell id="63" value="" style="edgeStyle=none;orthogonalLoop=1;jettySize=auto;html=1;fontColor=#000000;exitX=1;exitY=1;exitDx=0;exitDy=0;entryX=0;entryY=0;entryDx=0;entryDy=0;" parent="1" source="60" target="60" edge="1">
                    <mxGeometry width="80" relative="1" as="geometry">
                        <mxPoint x="761" y="339" as="sourcePoint"/>
                        <mxPoint x="841" y="339" as="targetPoint"/>
                        <Array as="points"/>
                    </mxGeometry>
                </mxCell>
                <mxCell id="64" value="(tank photo)" style="text;strokeColor=none;align=center;fillColor=none;html=1;verticalAlign=middle;whiteSpace=wrap;rounded=0;shadow=0;sketch=0;fontColor=#000000;" parent="1" vertex="1">
                    <mxGeometry x="808" y="390.5" width="75" height="30" as="geometry"/>
                </mxCell>
                <mxCell id="65" value="&lt;font style=&quot;font-size: 12px;&quot;&gt;Please Sign In&lt;/font&gt;" style="text;html=1;align=center;verticalAlign=middle;resizable=0;points=[];autosize=1;strokeColor=none;fillColor=none;fontSize=14;fontColor=#000000;" parent="1" vertex="1">
                    <mxGeometry x="206" y="109.5" width="95" height="29" as="geometry"/>
                </mxCell>
                <mxCell id="67" value="" style="edgeStyle=none;orthogonalLoop=1;jettySize=auto;html=1;fontSize=12;fontColor=#000000;exitX=1.055;exitY=0.423;exitDx=0;exitDy=0;exitPerimeter=0;strokeWidth=4;fillColor=#b0e3e6;strokeColor=#00FFFF;" parent="1" source="3" edge="1">
                    <mxGeometry width="80" relative="1" as="geometry">
                        <mxPoint x="435" y="351" as="sourcePoint"/>
                        <mxPoint x="520" y="239" as="targetPoint"/>
                        <Array as="points"/>
                    </mxGeometry>
                </mxCell>
                <mxCell id="68" value="&lt;font color=&quot;#00ffff&quot;&gt;&lt;b&gt;Homepage &amp;gt;&amp;gt;&lt;/b&gt;&lt;/font&gt;" style="text;html=1;align=center;verticalAlign=middle;resizable=0;points=[];autosize=1;strokeColor=none;fillColor=none;fontSize=12;fontColor=#000000;" parent="1" vertex="1">
                    <mxGeometry x="403" y="211" width="97" height="26" as="geometry"/>
                </mxCell>
                <mxCell id="69" value="" style="edgeStyle=none;orthogonalLoop=1;jettySize=auto;html=1;strokeColor=#00FFFF;strokeWidth=4;fontSize=12;fontColor=#00FFFF;exitX=0.593;exitY=0.992;exitDx=0;exitDy=0;exitPerimeter=0;" parent="1" source="53" edge="1">
                    <mxGeometry width="80" relative="1" as="geometry">
                        <mxPoint x="435" y="493" as="sourcePoint"/>
                        <mxPoint x="504" y="673" as="targetPoint"/>
                        <Array as="points">
                            <mxPoint x="672" y="566"/>
                            <mxPoint x="535" y="566"/>
                            <mxPoint x="535" y="673"/>
                        </Array>
                    </mxGeometry>
                </mxCell>
                <mxCell id="70" value="&lt;b&gt;Click on a&amp;nbsp;&lt;br&gt;specific tank&lt;/b&gt;" style="text;html=1;align=center;verticalAlign=middle;resizable=0;points=[];autosize=1;strokeColor=none;fillColor=none;fontSize=12;fontColor=#00FFFF;" parent="1" vertex="1">
                    <mxGeometry x="579" y="450" width="91" height="41" as="geometry"/>
                </mxCell>
                <mxCell id="71" value="Delete Tank" style="text;html=1;align=center;verticalAlign=middle;resizable=0;points=[];autosize=1;strokeColor=#006EAF;fillColor=#1ba1e2;fontColor=#ffffff;" parent="1" vertex="1">
                    <mxGeometry x="306" y="947.5" width="81" height="26" as="geometry"/>
                </mxCell>
                <mxCell id="72" value="Add a Tank" style="text;html=1;align=center;verticalAlign=middle;resizable=0;points=[];autosize=1;strokeColor=#006EAF;fillColor=#1ba1e2;fontColor=#ffffff;" parent="1" vertex="1">
                    <mxGeometry x="586" y="254" width="78" height="26" as="geometry"/>
                </mxCell>
                <mxCell id="73" value="" style="edgeStyle=none;orthogonalLoop=1;jettySize=auto;html=1;strokeColor=#00FFFF;strokeWidth=4;fontSize=12;fontColor=#00FFFF;exitX=0.441;exitY=0.058;exitDx=0;exitDy=0;exitPerimeter=0;" parent="1" source="34" edge="1">
                    <mxGeometry width="80" relative="1" as="geometry">
                        <mxPoint x="435" y="574" as="sourcePoint"/>
                        <mxPoint x="517" y="264" as="targetPoint"/>
                        <Array as="points">
                            <mxPoint x="125" y="389"/>
                            <mxPoint x="405" y="389"/>
                            <mxPoint x="405" y="264"/>
                        </Array>
                    </mxGeometry>
                </mxCell>
                <mxCell id="74" value="" style="whiteSpace=wrap;html=1;rounded=0;shadow=0;sketch=0;strokeColor=#000000;fontColor=#000000;fillColor=#FFFFFF;gradientColor=none;" parent="1" vertex="1">
                    <mxGeometry x="517" y="-305" width="417" height="382.5" as="geometry"/>
                </mxCell>
                <mxCell id="82" value="Save Tank Details" style="text;html=1;align=center;verticalAlign=middle;resizable=0;points=[];autosize=1;strokeColor=#006EAF;fillColor=#1ba1e2;fontColor=#ffffff;" parent="1" vertex="1">
                    <mxGeometry x="668.5" y="11" width="114" height="26" as="geometry"/>
                </mxCell>
                <mxCell id="94" value="&lt;font style=&quot;font-size: 18px;&quot;&gt;Add a new tank&lt;/font&gt;" style="text;html=1;align=center;verticalAlign=middle;resizable=0;points=[];autosize=1;strokeColor=none;fillColor=none;fontSize=14;fontColor=#000000;" parent="1" vertex="1">
                    <mxGeometry x="664.5" y="-284" width="142" height="34" as="geometry"/>
                </mxCell>
                <mxCell id="95" value="" style="whiteSpace=wrap;html=1;rounded=0;shadow=0;sketch=0;strokeColor=#000000;fontColor=#000000;fillColor=#FFFFFF;gradientColor=none;" parent="1" vertex="1">
                    <mxGeometry x="194" y="569" width="188" height="23" as="geometry"/>
                </mxCell>
                <mxCell id="96" value="Gallons:" style="text;html=1;align=center;verticalAlign=middle;resizable=0;points=[];autosize=1;strokeColor=none;fillColor=none;fontColor=#000000;" parent="1" vertex="1">
                    <mxGeometry x="129" y="569" width="62" height="26" as="geometry"/>
                </mxCell>
                <mxCell id="97" value="Flora:" style="text;html=1;align=center;verticalAlign=middle;resizable=0;points=[];autosize=1;strokeColor=none;fillColor=none;fontColor=#000000;" parent="1" vertex="1">
                    <mxGeometry x="603.5" y="-205" width="49" height="26" as="geometry"/>
                </mxCell>
                <mxCell id="98" value="Fauna:" style="text;html=1;align=center;verticalAlign=middle;resizable=0;points=[];autosize=1;strokeColor=none;fillColor=none;fontColor=#000000;" parent="1" vertex="1">
                    <mxGeometry x="600.5" y="-175.5" width="55" height="26" as="geometry"/>
                </mxCell>
                <mxCell id="99" value="Type plant list" style="whiteSpace=wrap;html=1;rounded=0;shadow=0;sketch=0;strokeColor=#000000;fontColor=#000000;fillColor=#FFFFFF;gradientColor=none;" parent="1" vertex="1">
                    <mxGeometry x="655.5" y="-204.5" width="188" height="23" as="geometry"/>
                </mxCell>
                <mxCell id="100" value="Type stock list" style="whiteSpace=wrap;html=1;rounded=0;shadow=0;sketch=0;strokeColor=#000000;fontColor=#000000;fillColor=#FFFFFF;gradientColor=none;" parent="1" vertex="1">
                    <mxGeometry x="655.5" y="-175.5" width="188" height="23" as="geometry"/>
                </mxCell>
                <mxCell id="101" value="Tags:" style="text;html=1;align=center;verticalAlign=middle;resizable=0;points=[];autosize=1;strokeColor=none;fillColor=none;fontColor=#000000;" parent="1" vertex="1">
                    <mxGeometry x="595.5" y="-143" width="47" height="26" as="geometry"/>
                </mxCell>
                <mxCell id="103" value="Date Started:" style="text;html=1;align=center;verticalAlign=middle;resizable=0;points=[];autosize=1;strokeColor=none;fillColor=none;fontColor=#000000;" parent="1" vertex="1">
                    <mxGeometry x="570.5" y="-113" width="89" height="26" as="geometry"/>
                </mxCell>
                <mxCell id="104" value="Type date tank started" style="whiteSpace=wrap;html=1;rounded=0;shadow=0;sketch=0;strokeColor=#000000;fontColor=#000000;fillColor=#FFFFFF;gradientColor=none;" parent="1" vertex="1">
                    <mxGeometry x="655.5" y="-113" width="188" height="23" as="geometry"/>
                </mxCell>
                <mxCell id="105" value="Noteworthy&lt;br&gt;Comments:" style="text;html=1;align=center;verticalAlign=middle;resizable=0;points=[];autosize=1;strokeColor=none;fillColor=none;fontColor=#000000;" parent="1" vertex="1">
                    <mxGeometry x="579.5" y="-87" width="79" height="41" as="geometry"/>
                </mxCell>
                <mxCell id="106" value="Type any notes worth mentioning" style="whiteSpace=wrap;html=1;rounded=0;shadow=0;sketch=0;strokeColor=#000000;fontColor=#000000;fillColor=#FFFFFF;gradientColor=none;" parent="1" vertex="1">
                    <mxGeometry x="655.5" y="-83" width="188" height="34" as="geometry"/>
                </mxCell>
                <mxCell id="107" value="Type gallon volume" style="whiteSpace=wrap;html=1;rounded=0;shadow=0;sketch=0;strokeColor=#000000;fontColor=#000000;fillColor=#FFFFFF;gradientColor=none;" parent="1" vertex="1">
                    <mxGeometry x="655.5" y="-237" width="188" height="24" as="geometry"/>
                </mxCell>
                <mxCell id="108" value="Gallons:" style="text;html=1;align=center;verticalAlign=middle;resizable=0;points=[];autosize=1;strokeColor=none;fillColor=none;fontColor=#000000;" parent="1" vertex="1">
                    <mxGeometry x="593.5" y="-237" width="62" height="26" as="geometry"/>
                </mxCell>
                <mxCell id="109" value="Photo Url:" style="text;html=1;align=center;verticalAlign=middle;resizable=0;points=[];autosize=1;strokeColor=none;fillColor=none;fontColor=#000000;" parent="1" vertex="1">
                    <mxGeometry x="584.5" y="-39" width="71" height="26" as="geometry"/>
                </mxCell>
                <mxCell id="110" value="paste photo url here" style="whiteSpace=wrap;html=1;rounded=0;shadow=0;sketch=0;strokeColor=#000000;fontColor=#000000;fillColor=#FFFFFF;gradientColor=none;" parent="1" vertex="1">
                    <mxGeometry x="655.5" y="-37.5" width="188" height="23" as="geometry"/>
                </mxCell>
                <mxCell id="111" value="" style="edgeStyle=none;orthogonalLoop=1;jettySize=auto;html=1;strokeColor=#00FFFF;strokeWidth=4;fontSize=18;fontColor=#00FFFF;exitX=0.897;exitY=0.038;exitDx=0;exitDy=0;exitPerimeter=0;entryX=0.338;entryY=0.999;entryDx=0;entryDy=0;entryPerimeter=0;" parent="1" source="72" target="74" edge="1">
                    <mxGeometry width="80" relative="1" as="geometry">
                        <mxPoint x="571" y="131" as="sourcePoint"/>
                        <mxPoint x="651" y="131" as="targetPoint"/>
                        <Array as="points"/>
                    </mxGeometry>
                </mxCell>
                <mxCell id="112" value="" style="edgeStyle=none;orthogonalLoop=1;jettySize=auto;html=1;strokeColor=#00FFFF;strokeWidth=4;fontSize=18;fontColor=#00FFFF;exitX=-0.004;exitY=0.5;exitDx=0;exitDy=0;exitPerimeter=0;" parent="1" source="82" edge="1">
                    <mxGeometry width="80" relative="1" as="geometry">
                        <mxPoint x="571" y="131" as="sourcePoint"/>
                        <mxPoint x="516" y="206" as="targetPoint"/>
                        <Array as="points">
                            <mxPoint x="415" y="24"/>
                            <mxPoint x="417" y="206"/>
                        </Array>
                    </mxGeometry>
                </mxCell>
                <mxCell id="113" value="" style="whiteSpace=wrap;html=1;rounded=0;shadow=0;sketch=0;strokeColor=#000000;fontColor=#000000;fillColor=#FFFFFF;gradientColor=none;" parent="1" vertex="1">
                    <mxGeometry x="544" y="715" width="417" height="382.5" as="geometry"/>
                </mxCell>
                <mxCell id="114" value="Save Tank Details" style="text;html=1;align=center;verticalAlign=middle;resizable=0;points=[];autosize=1;strokeColor=#006EAF;fillColor=#1ba1e2;fontColor=#ffffff;" parent="1" vertex="1">
                    <mxGeometry x="695.5" y="1031" width="114" height="26" as="geometry"/>
                </mxCell>
                <mxCell id="115" value="&lt;font style=&quot;font-size: 18px;&quot;&gt;Edit Tank Details&lt;/font&gt;" style="text;html=1;align=center;verticalAlign=middle;resizable=0;points=[];autosize=1;strokeColor=none;fillColor=none;fontSize=14;fontColor=#000000;" parent="1" vertex="1">
                    <mxGeometry x="686.5" y="736" width="152" height="34" as="geometry"/>
                </mxCell>
                <mxCell id="116" value="Flora:" style="text;html=1;align=center;verticalAlign=middle;resizable=0;points=[];autosize=1;strokeColor=none;fillColor=none;fontColor=#000000;" parent="1" vertex="1">
                    <mxGeometry x="630.5" y="815" width="49" height="26" as="geometry"/>
                </mxCell>
                <mxCell id="117" value="Fauna:" style="text;html=1;align=center;verticalAlign=middle;resizable=0;points=[];autosize=1;strokeColor=none;fillColor=none;fontColor=#000000;" parent="1" vertex="1">
                    <mxGeometry x="627.5" y="844.5" width="55" height="26" as="geometry"/>
                </mxCell>
                <mxCell id="118" value="Type plant list" style="whiteSpace=wrap;html=1;rounded=0;shadow=0;sketch=0;strokeColor=#000000;fontColor=#000000;fillColor=#FFFFFF;gradientColor=none;" parent="1" vertex="1">
                    <mxGeometry x="682.5" y="815.5" width="188" height="23" as="geometry"/>
                </mxCell>
                <mxCell id="119" value="Type stock list" style="whiteSpace=wrap;html=1;rounded=0;shadow=0;sketch=0;strokeColor=#000000;fontColor=#000000;fillColor=#FFFFFF;gradientColor=none;" parent="1" vertex="1">
                    <mxGeometry x="682.5" y="844.5" width="188" height="23" as="geometry"/>
                </mxCell>
                <mxCell id="122" value="Date Started:" style="text;html=1;align=center;verticalAlign=middle;resizable=0;points=[];autosize=1;strokeColor=none;fillColor=none;fontColor=#000000;" parent="1" vertex="1">
                    <mxGeometry x="597.5" y="907" width="89" height="26" as="geometry"/>
                </mxCell>
                <mxCell id="123" value="Type date tank started" style="whiteSpace=wrap;html=1;rounded=0;shadow=0;sketch=0;strokeColor=#000000;fontColor=#000000;fillColor=#FFFFFF;gradientColor=none;" parent="1" vertex="1">
                    <mxGeometry x="682.5" y="907" width="188" height="23" as="geometry"/>
                </mxCell>
                <mxCell id="124" value="Noteworthy&lt;br&gt;Comments:" style="text;html=1;align=center;verticalAlign=middle;resizable=0;points=[];autosize=1;strokeColor=none;fillColor=none;fontColor=#000000;" parent="1" vertex="1">
                    <mxGeometry x="606.5" y="933" width="79" height="41" as="geometry"/>
                </mxCell>
                <mxCell id="125" value="Type any notes worth mentioning" style="whiteSpace=wrap;html=1;rounded=0;shadow=0;sketch=0;strokeColor=#000000;fontColor=#000000;fillColor=#FFFFFF;gradientColor=none;" parent="1" vertex="1">
                    <mxGeometry x="682.5" y="937" width="188" height="34" as="geometry"/>
                </mxCell>
                <mxCell id="126" value="Type volume (and footprint optional" style="whiteSpace=wrap;html=1;rounded=0;shadow=0;sketch=0;strokeColor=#000000;fontColor=#000000;fillColor=#FFFFFF;gradientColor=none;" parent="1" vertex="1">
                    <mxGeometry x="682.5" y="779" width="188" height="28" as="geometry"/>
                </mxCell>
                <mxCell id="127" value="Gallons:" style="text;html=1;align=center;verticalAlign=middle;resizable=0;points=[];autosize=1;strokeColor=none;fillColor=none;fontColor=#000000;" parent="1" vertex="1">
                    <mxGeometry x="617.5" y="779" width="62" height="26" as="geometry"/>
                </mxCell>
                <mxCell id="128" value="Photo Url:" style="text;html=1;align=center;verticalAlign=middle;resizable=0;points=[];autosize=1;strokeColor=none;fillColor=none;fontColor=#000000;" parent="1" vertex="1">
                    <mxGeometry x="611.5" y="981" width="71" height="26" as="geometry"/>
                </mxCell>
                <mxCell id="129" value="paste photo url here" style="whiteSpace=wrap;html=1;rounded=0;shadow=0;sketch=0;strokeColor=#000000;fontColor=#000000;fillColor=#FFFFFF;gradientColor=none;" parent="1" vertex="1">
                    <mxGeometry x="682.5" y="982.5" width="188" height="23" as="geometry"/>
                </mxCell>
                <mxCell id="130" value="&lt;font style=&quot;font-size: 18px;&quot;&gt;Tank Name (details page)&lt;/font&gt;" style="text;html=1;align=center;verticalAlign=middle;resizable=0;points=[];autosize=1;strokeColor=none;fillColor=none;fontSize=14;fontColor=#000000;" parent="1" vertex="1">
                    <mxGeometry x="162.5" y="523" width="223" height="34" as="geometry"/>
                </mxCell>
                <mxCell id="133" value="" style="edgeStyle=none;orthogonalLoop=1;jettySize=auto;html=1;strokeColor=#00FFFF;strokeWidth=4;fontSize=18;fontColor=#00FFFF;exitX=0.467;exitY=1.058;exitDx=0;exitDy=0;exitPerimeter=0;entryX=0;entryY=0.978;entryDx=0;entryDy=0;entryPerimeter=0;" parent="1" source="41" target="113" edge="1">
                    <mxGeometry width="80" relative="1" as="geometry">
                        <mxPoint x="570" y="909" as="sourcePoint"/>
                        <mxPoint x="650" y="909" as="targetPoint"/>
                        <Array as="points">
                            <mxPoint x="206" y="1089"/>
                        </Array>
                    </mxGeometry>
                </mxCell>
                <mxCell id="134" value="" style="edgeStyle=none;orthogonalLoop=1;jettySize=auto;html=1;strokeColor=#00FFFF;strokeWidth=4;fontSize=18;fontColor=#00FFFF;entryX=0.838;entryY=1.001;entryDx=0;entryDy=0;entryPerimeter=0;exitX=-0.004;exitY=0.538;exitDx=0;exitDy=0;exitPerimeter=0;" parent="1" source="114" target="33" edge="1">
                    <mxGeometry width="80" relative="1" as="geometry">
                        <mxPoint x="513" y="1028" as="sourcePoint"/>
                        <mxPoint x="650" y="909" as="targetPoint"/>
                        <Array as="points">
                            <mxPoint x="430" y="1045"/>
                        </Array>
                    </mxGeometry>
                </mxCell>
                <mxCell id="189" value="&lt;div style=&quot;text-align: left;&quot;&gt;&lt;span style=&quot;background-color: initial;&quot;&gt;&lt;b&gt;&lt;u&gt;Stretch Goals:&amp;nbsp;&lt;/u&gt;&lt;/b&gt;&lt;/span&gt;&lt;/div&gt;&lt;div style=&quot;text-align: left;&quot;&gt;&lt;span style=&quot;background-color: initial;&quot;&gt;&lt;br&gt;&lt;/span&gt;&lt;/div&gt;&lt;div style=&quot;text-align: left;&quot;&gt;&lt;span style=&quot;background-color: initial;&quot;&gt;&lt;b&gt;+&lt;/b&gt; add a page to allow users to make posts, see other users posts, and comment on posts.&lt;/span&gt;&lt;/div&gt;&lt;div style=&quot;text-align: left;&quot;&gt;&lt;span style=&quot;background-color: initial;&quot;&gt;&lt;br&gt;&lt;/span&gt;&lt;/div&gt;&lt;div style=&quot;text-align: left;&quot;&gt;&lt;b&gt;+&lt;/b&gt;&amp;nbsp;add a page to allow users to see other users and their tanks&lt;span style=&quot;background-color: initial;&quot;&gt;&lt;br&gt;&lt;/span&gt;&lt;/div&gt;" style="shape=note;whiteSpace=wrap;html=1;backgroundOutline=1;fontColor=#000000;darkOpacity=0.05;fillColor=#FFF9B2;strokeColor=none;fillStyle=solid;direction=west;gradientDirection=north;gradientColor=#FFF2A1;shadow=1;size=20;pointerEvents=1;" vertex="1" parent="1">
                    <mxGeometry x="160" y="-255" width="225" height="226.5" as="geometry"/>
                </mxCell>
                <mxCell id="190" value="" style="whiteSpace=wrap;html=1;fillColor=#FFFFFF;rounded=1;strokeColor=#000000;" vertex="1" parent="1">
                    <mxGeometry x="696.5" y="-139" width="13" height="14" as="geometry"/>
                </mxCell>
                <mxCell id="192" value="&lt;font color=&quot;#000000&quot;&gt;Tag&lt;/font&gt;" style="text;html=1;align=center;verticalAlign=middle;resizable=0;points=[];autosize=1;strokeColor=none;fillColor=none;" vertex="1" parent="1">
                    <mxGeometry x="702.5" y="-144" width="37" height="26" as="geometry"/>
                </mxCell>
                <mxCell id="194" value="" style="whiteSpace=wrap;html=1;fillColor=#FFFFFF;rounded=1;strokeColor=#000000;" vertex="1" parent="1">
                    <mxGeometry x="737.5" y="-138" width="13" height="14" as="geometry"/>
                </mxCell>
                <mxCell id="195" value="&lt;font color=&quot;#000000&quot;&gt;Tag&lt;/font&gt;" style="text;html=1;align=center;verticalAlign=middle;resizable=0;points=[];autosize=1;strokeColor=none;fillColor=none;" vertex="1" parent="1">
                    <mxGeometry x="743.5" y="-143" width="37" height="26" as="geometry"/>
                </mxCell>
                <mxCell id="198" value="" style="whiteSpace=wrap;html=1;fillColor=#FFFFFF;rounded=1;strokeColor=#000000;" vertex="1" parent="1">
                    <mxGeometry x="655.5" y="-139" width="13" height="14" as="geometry"/>
                </mxCell>
                <mxCell id="199" value="&lt;font color=&quot;#000000&quot;&gt;Tag&lt;/font&gt;" style="text;html=1;align=center;verticalAlign=middle;resizable=0;points=[];autosize=1;strokeColor=none;fillColor=none;" vertex="1" parent="1">
                    <mxGeometry x="661.5" y="-144" width="37" height="26" as="geometry"/>
                </mxCell>
                <mxCell id="200" value="" style="whiteSpace=wrap;html=1;fillColor=#FFFFFF;rounded=1;strokeColor=#000000;" vertex="1" parent="1">
                    <mxGeometry x="778" y="-138" width="13" height="14" as="geometry"/>
                </mxCell>
                <mxCell id="201" value="&lt;font color=&quot;#000000&quot;&gt;Tag&lt;/font&gt;" style="text;html=1;align=center;verticalAlign=middle;resizable=0;points=[];autosize=1;strokeColor=none;fillColor=none;" vertex="1" parent="1">
                    <mxGeometry x="784" y="-143" width="37" height="26" as="geometry"/>
                </mxCell>
                <mxCell id="202" value="Tags:" style="text;html=1;align=center;verticalAlign=middle;resizable=0;points=[];autosize=1;strokeColor=none;fillColor=none;fontColor=#000000;" vertex="1" parent="1">
                    <mxGeometry x="625" y="875" width="47" height="26" as="geometry"/>
                </mxCell>
                <mxCell id="203" value="" style="whiteSpace=wrap;html=1;fillColor=#FFFFFF;rounded=1;strokeColor=#000000;" vertex="1" parent="1">
                    <mxGeometry x="726" y="879" width="13" height="14" as="geometry"/>
                </mxCell>
                <mxCell id="204" value="&lt;font color=&quot;#000000&quot;&gt;Tag&lt;/font&gt;" style="text;html=1;align=center;verticalAlign=middle;resizable=0;points=[];autosize=1;strokeColor=none;fillColor=none;" vertex="1" parent="1">
                    <mxGeometry x="732" y="874" width="37" height="26" as="geometry"/>
                </mxCell>
                <mxCell id="205" value="" style="whiteSpace=wrap;html=1;fillColor=#FFFFFF;rounded=1;strokeColor=#000000;" vertex="1" parent="1">
                    <mxGeometry x="767" y="880" width="13" height="14" as="geometry"/>
                </mxCell>
                <mxCell id="206" value="&lt;font color=&quot;#000000&quot;&gt;Tag&lt;/font&gt;" style="text;html=1;align=center;verticalAlign=middle;resizable=0;points=[];autosize=1;strokeColor=none;fillColor=none;" vertex="1" parent="1">
                    <mxGeometry x="773" y="875" width="37" height="26" as="geometry"/>
                </mxCell>
                <mxCell id="207" value="" style="whiteSpace=wrap;html=1;fillColor=#FFFFFF;rounded=1;strokeColor=#000000;" vertex="1" parent="1">
                    <mxGeometry x="685" y="879" width="13" height="14" as="geometry"/>
                </mxCell>
                <mxCell id="208" value="&lt;font color=&quot;#000000&quot;&gt;Tag&lt;/font&gt;" style="text;html=1;align=center;verticalAlign=middle;resizable=0;points=[];autosize=1;strokeColor=none;fillColor=none;" vertex="1" parent="1">
                    <mxGeometry x="691" y="874" width="37" height="26" as="geometry"/>
                </mxCell>
                <mxCell id="209" value="" style="whiteSpace=wrap;html=1;fillColor=#FFFFFF;rounded=1;strokeColor=#000000;" vertex="1" parent="1">
                    <mxGeometry x="807.5" y="880" width="13" height="14" as="geometry"/>
                </mxCell>
                <mxCell id="210" value="&lt;font color=&quot;#000000&quot;&gt;Tag&lt;/font&gt;" style="text;html=1;align=center;verticalAlign=middle;resizable=0;points=[];autosize=1;strokeColor=none;fillColor=none;" vertex="1" parent="1">
                    <mxGeometry x="813.5" y="875" width="37" height="26" as="geometry"/>
                </mxCell>
                <mxCell id="212" value="Tag" style="text;html=1;align=center;verticalAlign=middle;resizable=0;points=[];autosize=1;strokeColor=none;fillColor=none;fontColor=#000000;" vertex="1" parent="1">
                    <mxGeometry x="194" y="660" width="37" height="26" as="geometry"/>
                </mxCell>
                <mxCell id="213" value="Tag" style="text;html=1;align=center;verticalAlign=middle;resizable=0;points=[];autosize=1;strokeColor=none;fillColor=none;fontColor=#000000;" vertex="1" parent="1">
                    <mxGeometry x="221" y="660" width="37" height="26" as="geometry"/>
                </mxCell>
                <mxCell id="214" value="Tag" style="text;html=1;align=center;verticalAlign=middle;resizable=0;points=[];autosize=1;strokeColor=none;fillColor=none;fontColor=#000000;" vertex="1" parent="1">
                    <mxGeometry x="248" y="660" width="37" height="26" as="geometry"/>
                </mxCell>
            </root>
        </mxGraphModel>
    </diagram>
</mxfile>